<svg aria-hidden="true" style="position: absolute; width: 0; height: 0; overflow: hidden;" version="1.1" xmlns="http://www.w3.org/2000/svg" xmlns:xlink="http://www.w3.org/1999/xlink">
<defs>
<symbol id="icon-setting" viewBox="0 0 32 32">
<path d="M18.772 2c0.443 0 0.819 0.288 0.95 0.687l0.002 0.007 1.1 3.418c0.462 0.226 0.904 0.48 1.326 0.766l3.512-0.756c0.063-0.014 0.135-0.022 0.209-0.022 0.369 0 0.691 0.2 0.865 0.497l0.003 0.005 2.772 4.798c0.084 0.143 0.134 0.316 0.134 0.5 0 0.259-0.099 0.495-0.261 0.673l0.001-0.001-2.41 2.66c0.017 0.229 0.026 0.496 0.026 0.766s-0.010 0.537-0.028 0.802l0.002-0.036 2.41 2.664c0.161 0.177 0.26 0.413 0.26 0.672 0 0.184-0.050 0.356-0.136 0.504l0.003-0.005-2.772 4.8c-0.176 0.301-0.498 0.5-0.866 0.5-0.074 0-0.147-0.008-0.216-0.023l0.007 0.001-3.512-0.756c-0.42 0.284-0.864 0.54-1.324 0.766l-1.102 3.418c-0.133 0.406-0.509 0.694-0.952 0.694h-5.544c-0.443 0-0.819-0.288-0.95-0.687l-0.002-0.007-1.098-3.416c-0.517-0.254-0.953-0.511-1.368-0.794l0.038 0.024-3.51 0.758c-0.063 0.014-0.135 0.022-0.209 0.022-0.369 0-0.691-0.2-0.865-0.497l-0.003-0.005-2.772-4.798c-0.084-0.143-0.134-0.316-0.134-0.5 0-0.259 0.099-0.495 0.26-0.673l-0.001 0.001 2.41-2.664c-0.017-0.229-0.026-0.495-0.026-0.764s0.010-0.535 0.028-0.8l-0.002 0.036-2.41-2.664c-0.161-0.177-0.26-0.413-0.26-0.672 0-0.184 0.050-0.356 0.136-0.504l-0.003 0.005 2.772-4.8c0.176-0.301 0.498-0.5 0.866-0.5 0.074 0 0.147 0.008 0.216 0.024l-0.007-0.001 3.51 0.758c0.424-0.286 0.868-0.544 1.33-0.77l1.1-3.416c0.133-0.405 0.507-0.692 0.948-0.694h5.544zM18.040 4h-4.080l-1.136 3.534-0.766 0.374c-0.424 0.209-0.78 0.418-1.12 0.649l0.032-0.021-0.708 0.48-3.632-0.784-2.040 3.536 2.49 2.756-0.060 0.848c-0.014 0.188-0.022 0.407-0.022 0.628s0.008 0.44 0.023 0.657l-0.002-0.029 0.060 0.848-2.494 2.756 2.042 3.536 3.632-0.782 0.708 0.478c0.308 0.21 0.664 0.419 1.035 0.604l0.053 0.024 0.766 0.374 1.138 3.534h4.084l1.14-3.536 0.764-0.372c0.422-0.208 0.778-0.417 1.117-0.648l-0.031 0.020 0.706-0.478 3.634 0.782 2.040-3.536-2.492-2.756 0.060-0.848c0.014-0.188 0.022-0.408 0.022-0.629s-0.008-0.441-0.023-0.658l0.002 0.029-0.060-0.848 2.494-2.754-2.042-3.536-3.634 0.78-0.706-0.476c-0.308-0.211-0.664-0.42-1.034-0.604l-0.052-0.024-0.764-0.372-1.142-3.536zM16 10c3.314 0 6 2.686 6 6s-2.686 6-6 6v0c-3.314 0-6-2.686-6-6s2.686-6 6-6v0zM16 12c-2.209 0-4 1.791-4 4s1.791 4 4 4v0c2.209 0 4-1.791 4-4s-1.791-4-4-4v0z"></path>
</symbol>
<symbol id="icon-close" viewBox="0 0 32 32">
<path d="M7.057 7.057c0.521-0.521 1.365-0.521 1.886 0l7.057 7.057 7.057-7.057c0.521-0.521 1.365-0.521 1.886 0s0.521 1.365 0 1.886l-7.057 7.057 7.057 7.057c0.521 0.521 0.521 1.365 0 1.886s-1.365 0.521-1.886 0l-7.057-7.057-7.057 7.057c-0.521 0.521-1.365 0.521-1.886 0s-0.521-1.365 0-1.886l7.057-7.057-7.057-7.057c-0.521-0.521-0.521-1.365 0-1.886z"></path>
</symbol>
</defs>
</svg>
